<svg width="512" height="512" xmlns="http://www.w3.org/2000/svg" viewBox="0 0 512 512">
  <rect width="512" height="512" fill="#ffffff"/>
  <!-- iugu logo symbol based on the PNG - simplified SVG version -->
  <g transform="translate(256,256) scale(8,8)">
    <path d="M-20,-12 C-15,-17 -5,-17 0,-12 C5,-7 15,-7 20,-12 C25,-17 25,-7 20,-2 C15,3 5,3 0,-2 C-5,3 -15,3 -20,-2 C-25,-7 -25,-17 -20,-12 Z M-8,8 C-8,5 -5,2 -2,2 L2,2 C5,2 8,5 8,8 L8,12 C8,15 5,18 2,18 L-2,18 C-5,18 -8,15 -8,12 L-8,8 Z" 
          fill="#000000" 
          stroke="none"/>
  </g>
</svg>